<svg xmlns="http://www.w3.org/2000/svg" width="17" height="17" viewBox="0 0 17 17">
    <g fill="none" fill-rule="evenodd">
        <g fill="#FFF" fill-rule="nonzero">
            <g>
                <g>
                    <g>
                        <path d="M6.667 22.146l4.214-1.107c1.16.634 2.467.967 3.8.967h.003c4.38 0 8.024-3.566 8.024-7.949 0-2.123-.902-4.118-2.402-5.622-1.5-1.504-3.499-2.33-5.622-2.33-4.383 0-7.95 3.566-7.95 7.948 0 1.4.366 2.768 1.06 3.975l-1.127 4.118zm8.017-1.479c-1.189 0-2.353-.319-3.366-.92l-.24-.143-2.5.655.667-2.439-.158-.25c-.662-1.053-1.01-2.267-1.01-3.517 0-3.641 2.965-6.606 6.61-6.606 1.766 0 3.424.687 4.67 1.937s2.012 2.908 2.009 4.673c0 3.645-3.04 6.61-6.682 6.61zm2.546-2.822c.383-.057 1.174-.48 1.339-.945.165-.465.165-.863.115-.945-.047-.09-.18-.14-.376-.237-.197-.1-1.175-.58-1.357-.644-.183-.068-.316-.1-.448.1-.133.2-.512.645-.63.78-.115.133-.233.151-.43.05-1.167-.583-1.934-1.041-2.703-2.362-.205-.351.204-.326.583-1.085.065-.133.032-.247-.018-.348-.05-.1-.447-1.077-.612-1.475-.161-.387-.326-.333-.448-.34-.114-.007-.247-.007-.38-.007-.132 0-.346.05-.53.247-.182.2-.694.68-.694 1.658 0 .977.713 1.923.81 2.055.1.133 1.4 2.138 3.394 3 1.26.545 1.755.591 2.385.498z" transform="translate(-812 -143) translate(619 131) translate(43 6) translate(144)"/>
                    </g>
                </g>
            </g>
        </g>
    </g>
</svg>
