<svg xmlns="http://www.w3.org/2000/svg" width="28" height="28" viewBox="0 0 28 28">
    <g fill="none" fill-rule="evenodd" transform="translate(1 1)">
        <rect width="26" height="26" fill="#FFF" stroke="#0F0F0F" stroke-opacity=".126" stroke-width="1.486" rx="13"/>
        <g fill="#5062EC" fill-rule="nonzero">
            <path d="M11.942 2.248c0 1.009-.818 1.826-1.826 1.826-1.01 0-1.827-.817-1.827-1.826 0-1.009.818-1.827 1.827-1.827 1.008 0 1.826.818 1.826 1.827z" transform="translate(6.19 6.19)"/>
            <path d="M10.116 4.496c-1.24 0-2.248-1.008-2.248-2.248C7.868 1.008 8.876 0 10.116 0c1.24 0 2.247 1.008 2.247 2.248 0 1.24-1.008 2.248-2.247 2.248zm0-3.653c-.775 0-1.405.63-1.405 1.405 0 .774.63 1.405 1.405 1.405.774 0 1.404-.63 1.404-1.405 0-.774-.63-1.405-1.404-1.405zM11.942 11.24c0 1.008-.818 1.826-1.826 1.826-1.01 0-1.827-.818-1.827-1.827 0-1.008.818-1.826 1.827-1.826 1.008 0 1.826.818 1.826 1.826z" transform="translate(6.19 6.19)"/>
            <path d="M10.116 13.487c-1.24 0-2.248-1.008-2.248-2.248 0-1.24 1.008-2.247 2.248-2.247 1.24 0 2.247 1.008 2.247 2.247 0 1.24-1.008 2.248-2.247 2.248zm0-3.653c-.775 0-1.405.631-1.405 1.405 0 .775.63 1.405 1.405 1.405.774 0 1.404-.63 1.404-1.405 0-.774-.63-1.405-1.404-1.405zM4.074 6.744c0 1.008-.817 1.826-1.826 1.826C1.239 8.57.42 7.752.42 6.744c0-1.01.818-1.827 1.827-1.827s1.826.818 1.826 1.827z" transform="translate(6.19 6.19)"/>
            <path d="M2.248 8.992C1.008 8.992 0 7.983 0 6.744c0-1.24 1.008-2.248 2.248-2.248 1.24 0 2.248 1.008 2.248 2.248 0 1.24-1.008 2.248-2.248 2.248zm0-3.653c-.775 0-1.405.63-1.405 1.405 0 .774.63 1.405 1.405 1.405s1.405-.63 1.405-1.405-.63-1.405-1.405-1.405z" transform="translate(6.19 6.19)"/>
            <path d="M3.575 6.474c-.196 0-.386-.102-.49-.284-.153-.269-.058-.612.211-.766L8.51 2.45c.27-.155.613-.06.767.21.153.27.059.612-.21.767L3.852 6.4c-.087.05-.183.074-.277.074zM8.789 11.11c-.095 0-.19-.023-.278-.073L3.297 8.064c-.27-.154-.364-.497-.21-.767.152-.27.496-.365.766-.21l5.214 2.973c.27.153.364.497.21.766-.103.182-.293.284-.488.284z" transform="translate(6.19 6.19)"/>
        </g>
    </g>
</svg>
