<svg xmlns="http://www.w3.org/2000/svg" width="18" height="13" viewBox="0 0 18 13">
    <g fill="none" fill-rule="evenodd">
        <g fill="#FFF" fill-rule="nonzero">
            <g>
                <g>
                    <g>
                        <path d="M21.892 21.667c.87 0 1.575-.705 1.575-1.575v-9.45c0-.87-.706-1.575-1.575-1.575H8.242c-.87 0-1.575.705-1.575 1.575v9.45c0 .87.705 1.575 1.575 1.575h13.65zm-6.825-4.725c-.762.012-1.857-1.033-2.41-1.467-2.506-1.963-3.68-2.895-4.415-3.494v-1.34h13.65v1.34c-.736.599-1.909 1.53-4.416 3.494-.553.434-1.648 1.479-2.41 1.467zm6.825 3.15H8.242v-6.09c.752.598 1.818 1.439 3.443 2.711.717.565 1.973 1.811 3.382 1.804 1.401.007 2.641-1.221 3.381-1.803 1.625-1.273 2.692-2.113 3.444-2.712v6.09z" transform="translate(-704 -146) translate(619 131) translate(43 6) translate(36)"/>
                    </g>
                </g>
            </g>
        </g>
    </g>
</svg>
