<svg xmlns="http://www.w3.org/2000/svg" width="14" height="14" viewBox="0 0 14 14">
    <g fill="none" fill-rule="evenodd">
        <g fill="#FFF" fill-rule="nonzero">
            <g>
                <g>
                    <path d="M14.78 17.468l.114-.114c.222-.222.35-.502.386-.792.016-.132-.05-.263-.17-.321-.223-.108-.423-.25-.595-.423-.854-.853-.852-2.241 0-3.093l1.958-1.959c.857-.856 2.24-.853 3.094 0 .856.857.853 2.24 0 3.094l-1.194 1.194c-.076.076-.109.187-.083.292.075.317.118.646.123.985.004.274.34.407.534.213l.405-.405.46-.462.786-.786c1.425-1.425 1.425-3.731 0-5.156-1.425-1.425-3.732-1.424-5.156 0l-.365.365-.938.938-.406.405-.114.114c-.238.24-.291.298-.35.37l-.025.031c-.004.006-.01.011-.014.018-1.162 1.429-1.077 3.543.254 4.873.282.283.6.509.938.679.12.06.264.034.358-.06zm-.222 3.463l.189-.188.772-.772.123-.123.316-.315.169-.17.254-.254c.187-.188.26-.264.31-.323l.027-.03.012-.016.026-.031.014-.018c1.162-1.429 1.077-3.543-.254-4.874-.282-.282-.6-.508-.938-.678-.12-.06-.264-.035-.358.06l-.114.114c-.222.221-.35.502-.386.791-.016.133.05.264.17.322.223.107.422.25.595.422.854.854.852 2.242 0 3.094L13.527 19.9c-.857.857-2.24.853-3.094 0-.856-.857-.853-2.24 0-3.093l1.194-1.194c.076-.076.109-.187.083-.292-.075-.317-.118-.646-.123-.985-.004-.275-.34-.407-.534-.213l-.067.067-.155.155-.087.088-.84.841-.502.501c-1.425 1.426-1.425 3.732 0 5.156 1.425 1.426 3.732 1.425 5.156 0z" transform="translate(-670 -145) translate(619 131) translate(43 6)"/>
                </g>
            </g>
        </g>
    </g>
</svg>
