<svg xmlns="http://www.w3.org/2000/svg" width="18" height="14" viewBox="0 0 18 14">
    <g fill="none" fill-rule="evenodd">
        <g fill="#FFF">
            <g>
                <g>
                    <g>
                        <path d="M21.627 11.707c.006.147.01.294.01.443 0 4.518-3.44 9.728-9.729 9.728-1.93 0-3.728-.566-5.241-1.535.267.031.54.047.815.047 1.602 0 3.076-.546 4.247-1.464-1.497-.027-2.76-1.016-3.195-2.374.21.04.423.06.644.06.312 0 .614-.041.901-.12-1.564-.313-2.743-1.695-2.743-3.351v-.044c.46.256.989.41 1.55.428-.918-.614-1.522-1.66-1.522-2.846 0-.627.168-1.214.463-1.72 1.687 2.07 4.206 3.43 7.048 3.573-.058-.25-.089-.511-.089-.779 0-1.888 1.532-3.42 3.42-3.42.984 0 1.872.416 2.495 1.08.78-.153 1.511-.437 2.172-.829-.255.798-.798 1.468-1.503 1.892.691-.083 1.35-.267 1.963-.539-.458.686-1.038 1.288-1.706 1.77z" transform="translate(-776 -145) translate(619 131) translate(43 6) translate(108)"/>
                    </g>
                </g>
            </g>
        </g>
    </g>
</svg>
